<svg id="visual" viewBox="0 0 1800 800" width="1800" height="800" xmlns="http://www.w3.org/2000/svg" xmlns:xlink="http://www.w3.org/1999/xlink" version="1.1"><rect x="0" y="0" width="1800" height="800" fill="#ffffff"></rect><defs><linearGradient id="grad1_0" x1="55.6%" y1="100%" x2="100%" y2="0%"><stop offset="5%" stop-color="#0d5de9" stop-opacity="1"></stop><stop offset="95%" stop-color="#0d5de9" stop-opacity="1"></stop></linearGradient></defs><defs><linearGradient id="grad1_1" x1="55.6%" y1="100%" x2="100%" y2="0%"><stop offset="5%" stop-color="#0d5de9" stop-opacity="1"></stop><stop offset="95%" stop-color="#868ff2" stop-opacity="1"></stop></linearGradient></defs><defs><linearGradient id="grad1_2" x1="55.6%" y1="100%" x2="100%" y2="0%"><stop offset="5%" stop-color="#c7c5f9" stop-opacity="1"></stop><stop offset="95%" stop-color="#868ff2" stop-opacity="1"></stop></linearGradient></defs><defs><linearGradient id="grad1_3" x1="55.6%" y1="100%" x2="100%" y2="0%"><stop offset="5%" stop-color="#c7c5f9" stop-opacity="1"></stop><stop offset="95%" stop-color="#ffffff" stop-opacity="1"></stop></linearGradient></defs><defs><linearGradient id="grad2_0" x1="0%" y1="100%" x2="44.4%" y2="0%"><stop offset="5%" stop-color="#0d5de9" stop-opacity="1"></stop><stop offset="95%" stop-color="#0d5de9" stop-opacity="1"></stop></linearGradient></defs><defs><linearGradient id="grad2_1" x1="0%" y1="100%" x2="44.4%" y2="0%"><stop offset="5%" stop-color="#868ff2" stop-opacity="1"></stop><stop offset="95%" stop-color="#0d5de9" stop-opacity="1"></stop></linearGradient></defs><defs><linearGradient id="grad2_2" x1="0%" y1="100%" x2="44.4%" y2="0%"><stop offset="5%" stop-color="#868ff2" stop-opacity="1"></stop><stop offset="95%" stop-color="#c7c5f9" stop-opacity="1"></stop></linearGradient></defs><defs><linearGradient id="grad2_3" x1="0%" y1="100%" x2="44.4%" y2="0%"><stop offset="5%" stop-color="#ffffff" stop-opacity="1"></stop><stop offset="95%" stop-color="#c7c5f9" stop-opacity="1"></stop></linearGradient></defs><g transform="translate(1800, 800)"><path d="M-320 0C-257.5 -10.1 -195.1 -20.2 -184.4 -36.7C-173.7 -53.1 -214.7 -75.9 -227.3 -94.1C-239.8 -112.4 -223.9 -126.2 -219.5 -146.7C-215.2 -167.1 -222.4 -194.2 -219.2 -219.2C-216 -244.2 -202.3 -267.3 -177.8 -266.1C-153.2 -264.9 -117.8 -239.4 -94.9 -229.1C-72 -218.8 -61.7 -223.6 -48 -241.3C-34.3 -258.9 -17.1 -289.5 0 -320L0 0Z" fill="#e3e2fc"></path><path d="M-240 0C-193.2 -7.6 -146.3 -15.2 -138.3 -27.5C-130.3 -39.8 -161 -56.9 -170.5 -70.6C-179.9 -84.3 -167.9 -94.7 -164.6 -110C-161.4 -125.3 -166.8 -145.6 -164.4 -164.4C-162 -183.2 -151.8 -200.5 -133.3 -199.6C-114.9 -198.7 -88.3 -179.6 -71.2 -171.8C-54 -164.1 -46.3 -167.7 -36 -181C-25.7 -194.2 -12.9 -217.1 0 -240L0 0Z" fill="#a8aaf6"></path><path d="M-160 0C-128.8 -5.1 -97.5 -10.1 -92.2 -18.3C-86.8 -26.6 -107.4 -37.9 -113.6 -47.1C-119.9 -56.2 -111.9 -63.1 -109.8 -73.3C-107.6 -83.6 -111.2 -97.1 -109.6 -109.6C-108 -122.1 -101.2 -133.6 -88.9 -133C-76.6 -132.4 -58.9 -119.7 -47.5 -114.6C-36 -109.4 -30.9 -111.8 -24 -120.6C-17.1 -129.5 -8.6 -144.7 0 -160L0 0Z" fill="#5e75ee"></path><path d="M-80 0C-64.4 -2.5 -48.8 -5.1 -46.1 -9.2C-43.4 -13.3 -53.7 -19 -56.8 -23.5C-60 -28.1 -56 -31.6 -54.9 -36.7C-53.8 -41.8 -55.6 -48.5 -54.8 -54.8C-54 -61.1 -50.6 -66.8 -44.4 -66.5C-38.3 -66.2 -29.4 -59.9 -23.7 -57.3C-18 -54.7 -15.4 -55.9 -12 -60.3C-8.6 -64.7 -4.3 -72.4 0 -80L0 0Z" fill="#0d5de9"></path></g><g transform="translate(0, 0)"><path d="M320 0C323.3 22 326.7 44 313.9 62.4C301 80.8 272.1 95.7 237.4 98.3C202.8 101 162.4 91.5 153 102.2C143.5 112.9 165 143.8 173.9 173.9C182.9 204.1 179.3 233.6 162.8 243.6C146.2 253.7 116.7 244.3 93.4 225.4C70 206.5 52.8 178.1 38.2 192.2C23.7 206.4 11.8 263.2 0 320L0 0Z" fill="#e3e2fc"></path><path d="M240 0C242.5 16.5 245 33 235.4 46.8C225.8 60.6 204.1 71.8 178.1 73.8C152.1 75.8 121.8 68.7 114.7 76.7C107.7 84.7 123.8 107.8 130.5 130.5C137.2 153.1 134.5 175.2 122.1 182.7C109.7 190.3 87.6 183.2 70 169.1C52.5 154.9 39.6 133.5 28.7 144.2C17.8 154.8 8.9 197.4 0 240L0 0Z" fill="#a8aaf6"></path><path d="M160 0C161.7 11 163.3 22 156.9 31.2C150.5 40.4 136 47.8 118.7 49.2C101.4 50.5 81.2 45.8 76.5 51.1C71.8 56.5 82.5 71.9 87 87C91.4 102.1 89.7 116.8 81.4 121.8C73.1 126.8 58.4 122.2 46.7 112.7C35 103.3 26.4 89 19.1 96.1C11.8 103.2 5.9 131.6 0 160L0 0Z" fill="#5e75ee"></path><path d="M80 0C80.8 5.5 81.7 11 78.5 15.6C75.3 20.2 68 23.9 59.4 24.6C50.7 25.3 40.6 22.9 38.2 25.6C35.9 28.2 41.3 35.9 43.5 43.5C45.7 51 44.8 58.4 40.7 60.9C36.6 63.4 29.2 61.1 23.3 56.4C17.5 51.6 13.2 44.5 9.6 48.1C5.9 51.6 3 65.8 0 80L0 0Z" fill="#0d5de9"></path></g></svg>